<svg xmlns="http://www.w3.org/2000/svg" xmlns:xlink="http://www.w3.org/1999/xlink" preserveAspectRatio="xMidYMid" width="15.69" height="18.88" viewBox="0 0 15.69 18.88"><defs><style>.cls-1{fill:#fff;fill-rule:evenodd;}</style></defs><path d="M9.328,17.805 L9.321,17.836 L9.321,5.217 L13.310,9.184 C13.505,9.377 13.768,9.484 14.045,9.484 C14.322,9.484 14.584,9.377 14.779,9.184 L15.399,8.566 C15.594,8.373 15.701,8.113 15.701,7.838 C15.701,7.561 15.594,7.303 15.400,7.109 L8.578,0.309 C8.383,0.114 8.122,0.008 7.845,0.009 C7.567,0.008 7.306,0.114 7.111,0.309 L0.289,7.109 C0.094,7.303 -0.013,7.561 -0.013,7.838 C-0.013,8.113 0.094,8.373 0.289,8.566 L0.908,9.184 C1.103,9.377 1.362,9.484 1.639,9.484 C1.916,9.484 2.162,9.377 2.357,9.184 L6.367,5.172 L6.367,17.820 C6.367,18.388 6.859,18.864 7.429,18.864 L8.305,18.864 C8.875,18.864 9.328,18.373 9.328,17.805 Z" class="cls-1"/></svg>
